<svg width="39" height="39" viewBox="0 0 39 39" fill="none" xmlns="http://www.w3.org/2000/svg">
<path d="M25.7574 22.9936C25.4201 23.3184 24.9693 23.5 24.5002 23.5C24.031 23.5 23.5802 23.3184 23.2429 22.9936C20.1543 20.0008 16.0152 16.6575 18.0337 11.8037C19.1251 9.17932 21.7449 7.5 24.5002 7.5C27.2554 7.5 29.8752 9.17933 30.9666 11.8037C32.9826 16.6514 28.8536 20.0111 25.7574 22.9936Z" stroke="#6F6F6F"/>
<path d="M24.5 14.5H24.518" stroke="#6F6F6F" stroke-width="2" stroke-linecap="round" stroke-linejoin="round"/>
<path d="M0.5 19.5C0.5 10.5433 0.5 6.06497 3.28249 3.28249C6.06497 0.5 10.5433 0.5 19.5 0.5C28.4567 0.5 32.935 0.5 35.7175 3.28249C38.5 6.06497 38.5 10.5433 38.5 19.5C38.5 28.4567 38.5 32.935 35.7175 35.7175C32.935 38.5 28.4567 38.5 19.5 38.5C10.5433 38.5 6.06497 38.5 3.28249 35.7175C0.5 32.935 0.5 28.4567 0.5 19.5Z" stroke="#6F6F6F"/>
<path d="M29.5 37.5L1.5 9.5" stroke="#6F6F6F" stroke-linecap="round" stroke-linejoin="round"/>
<path d="M15.5 23.5L3.5 35.5" stroke="#6F6F6F" stroke-linecap="round" stroke-linejoin="round"/>
</svg>
