<svg width="48" height="48" viewBox="0 0 48 48" fill="none" xmlns="http://www.w3.org/2000/svg">
<path d="M47.1667 37.8333C47.1667 41.1003 47.1667 42.7338 46.5309 43.9816C45.9716 45.0792 45.0792 45.9716 43.9816 46.5309C42.7338 47.1667 41.1003 47.1667 37.8333 47.1667C34.5664 47.1667 32.9329 47.1667 31.6851 46.5309C30.5874 45.9716 29.6951 45.0792 29.1358 43.9816C28.5 42.7338 28.5 41.1003 28.5 37.8333C28.5 34.5664 28.5 32.9329 29.1358 31.6851C29.6951 30.5874 30.5874 29.6951 31.6851 29.1358C32.9329 28.5 34.5664 28.5 37.8333 28.5C41.1003 28.5 42.7338 28.5 43.9816 29.1358C45.0792 29.6951 45.9716 30.5874 46.5309 31.6851C47.1667 32.9329 47.1667 34.5664 47.1667 37.8333Z" stroke="#6F6F6F"/>
<path d="M47.1667 19.1668C47.1667 22.4338 47.1667 24.0673 46.5309 25.3151C45.9716 26.4127 45.0792 27.3051 43.9816 27.8644C42.7338 28.5002 41.1003 28.5002 37.8333 28.5002C34.5664 28.5002 32.9329 28.5002 31.6851 27.8644C30.5874 27.3051 29.6951 26.4127 29.1358 25.3151C28.5 24.0673 28.5 22.4338 28.5 19.1668C28.5 15.8999 28.5 14.2664 29.1358 13.0186C29.6951 11.9209 30.5874 11.0286 31.6851 10.4693C32.9329 9.8335 34.5664 9.8335 37.8333 9.8335C41.1003 9.8335 42.7338 9.8335 43.9816 10.4693C45.0792 11.0286 45.9716 11.9209 46.5309 13.0186C47.1667 14.2664 47.1667 15.8999 47.1667 19.1668Z" stroke="#6F6F6F"/>
<path d="M28.5 37.8333C28.5 41.1003 28.5 42.7338 27.8642 43.9816C27.305 45.0792 26.4126 45.9716 25.315 46.5309C24.0672 47.1667 22.4337 47.1667 19.1667 47.1667C15.8997 47.1667 14.2662 47.1667 13.0184 46.5309C11.9208 45.9716 11.0284 45.0792 10.4692 43.9816C9.83337 42.7338 9.83337 41.1003 9.83337 37.8333C9.83337 34.5664 9.83337 32.9329 10.4692 31.6851C11.0284 30.5874 11.9208 29.6951 13.0184 29.1358C14.2662 28.5 15.8997 28.5 19.1667 28.5C22.4337 28.5 24.0672 28.5 25.315 29.1358C26.4126 29.6951 27.305 30.5874 27.8642 31.6851C28.5 32.9329 28.5 34.5664 28.5 37.8333Z" stroke="#6F6F6F"/>
<path d="M19.1667 9.83333C19.1667 13.1003 19.1667 14.7338 18.5309 15.9816C17.9716 17.0792 17.0792 17.9716 15.9816 18.5309C14.7338 19.1667 13.1003 19.1667 9.83333 19.1667C6.56636 19.1667 4.93287 19.1667 3.68505 18.5309C2.58744 17.9716 1.69506 17.0792 1.13579 15.9816C0.499999 14.7338 0.499999 13.1003 0.5 9.83333C0.500001 6.56636 0.500001 4.93287 1.1358 3.68505C1.69506 2.58744 2.58744 1.69506 3.68506 1.13579C4.93288 0.499999 6.56636 0.499999 9.83334 0.5C13.1003 0.500001 14.7338 0.500001 15.9816 1.1358C17.0792 1.69506 17.9716 2.58744 18.5309 3.68506C19.1667 4.93288 19.1667 6.56636 19.1667 9.83333Z" stroke="#6F6F6F"/>
</svg>
