<svg width="64" height="64" viewBox="0 0 64 64" fill="none" xmlns="http://www.w3.org/2000/svg">
<path d="M41.3334 29.3333C41.3334 24.1787 37.1547 20 32.0001 20C26.8454 20 22.6667 24.1787 22.6667 29.3333C22.6667 34.488 26.8454 38.6667 32.0001 38.6667C37.1547 38.6667 41.3334 34.488 41.3334 29.3333Z" stroke="#141B34" stroke-width="1.5" stroke-linecap="round" stroke-linejoin="round"/>
<path d="M41.2882 30.2663C42.1466 30.5267 43.0574 30.6667 44.0009 30.6667C49.1556 30.6667 53.3342 26.488 53.3342 21.3333C53.3342 16.1787 49.1556 12 44.0009 12C39.1611 12 35.1817 15.6837 34.7136 20.4003" stroke="#141B34" stroke-width="1.5" stroke-linecap="round" stroke-linejoin="round"/>
<path d="M29.2874 20.4003C28.8192 15.6837 24.8399 12 20.0001 12C14.8454 12 10.6667 16.1787 10.6667 21.3333C10.6667 26.488 14.8454 30.6667 20.0001 30.6667C20.9436 30.6667 21.8543 30.5267 22.7128 30.2663" stroke="#141B34" stroke-width="1.5" stroke-linecap="round" stroke-linejoin="round"/>
<path d="M58.6667 44C58.6667 36.6362 52.1002 30.6666 44 30.6666" stroke="#141B34" stroke-width="1.5" stroke-linecap="round" stroke-linejoin="round"/>
<path d="M46.6666 52C46.6666 44.6362 40.1001 38.6666 31.9999 38.6666C23.8997 38.6666 17.3333 44.6362 17.3333 52" stroke="#141B34" stroke-width="1.5" stroke-linecap="round" stroke-linejoin="round"/>
<path d="M19.9999 30.6666C11.8997 30.6666 5.33325 36.6362 5.33325 44" stroke="#141B34" stroke-width="1.5" stroke-linecap="round" stroke-linejoin="round"/>
</svg>
