<svg width="450" height="82" viewBox="0 0 450 82" fill="none" xmlns="http://www.w3.org/2000/svg">
<g clip-path="url(#clip0_2091_683)">
<path d="M0 18.1868H5.17812L11.6035 39.4848C13.6553 46.1707 15.4426 52.6734 17.4944 60.1627H17.6726C19.7244 53.3905 21.5116 47.152 24.0116 39.2206L30.6152 18.1868H35.7015L42.0405 38.773C43.9142 45.1894 46.5923 53.7463 48.4659 60.1627H48.6441C50.7877 53.7463 53.1041 45.1031 55.2477 37.9696L61.1386 18.1868H65.8685L51.2305 65.0639H45.966L39.8969 45.8149C37.3106 37.6138 34.9888 29.4181 33.1152 23.6218H32.937C31.2415 29.0568 29.0979 36.8104 25.977 46.7045L20.0862 65.0639H14.8216L0 18.1868Z" fill="#111921"/>
<path d="M71.7108 0H76.1708V10.9617H71.7108V0ZM71.7108 18.1869H76.1708V65.064H71.7108V18.1869Z" fill="#111921"/>
<path d="M94.6047 65.0641C91.0356 63.1931 89.783 60.1629 89.783 53.3907V22.0206H81.6621V18.187H89.783V5.35425H94.3347V18.187H103.886V22.0206H94.3347V52.0535C94.3347 60.5188 97.0129 63.2848 101.651 63.9965V65.0641H94.5993H94.6047Z" fill="#111921"/>
<path d="M109.291 0H113.751V18.0035C113.751 20.3221 113.66 25.4875 113.66 26.8247H113.838C115.981 22.2793 120.711 16.9306 129.367 16.9306C141.953 16.9306 146.143 25.1316 146.143 36.4492V65.0587H141.683V36.983C141.683 26.5551 137.666 21.0284 128.832 21.0284C119.999 21.0284 113.751 28.0702 113.751 38.5844V65.0533H109.291V0Z" fill="#111921"/>
<path d="M168.778 59.0898H168.599C168.691 60.427 168.778 61.6725 168.778 63.0097V65.0587H156.726C156.818 63.1877 156.818 60.6912 156.818 58.3727V0H169.226V14.3478C169.226 17.3781 169.134 20.4946 169.134 23.7944C171.99 20.0525 176.634 16.8443 183.858 16.8443C196.445 16.8443 205.192 27.2722 205.192 41.6201C205.192 55.9679 196.267 66.1316 183.594 66.1316C176.72 66.1316 171.904 63.5489 168.778 59.0898ZM192.606 41.7117C192.606 33.0685 188.054 27.186 180.824 27.186C173.594 27.186 168.95 33.0685 168.95 41.6255C168.95 50.1824 173.502 56.1512 180.824 56.1512C188.146 56.1512 192.606 50.2687 192.606 41.7117Z" fill="#111921"/>
<path d="M208.361 51.8755C208.361 43.2323 213.626 39.6628 226.569 37.258L234.247 35.8346C237.908 35.1228 238.977 35.0312 238.977 32.7127C238.977 28.7928 235.856 26.2963 230.586 26.2963C224.873 26.2963 222.017 29.3266 221.66 33.8719L209.879 33.1602C210.591 23.7136 218.27 17.2056 230.764 17.2056C243.971 17.2056 250.937 22.8185 250.937 35.387V62.8372C250.937 63.9048 251.028 64.7082 251.028 65.0641H240.407C240.316 64.3523 240.316 63.4627 240.316 62.6593V60.8746H240.224C237.011 63.9965 232.281 65.9537 225.499 65.9537C215.057 65.9537 208.361 60.6966 208.361 51.8701V51.8755ZM239.241 46.8826V45.1895C239.241 44.6557 239.241 43.8523 239.419 43.3185C237.189 43.8523 235.85 44.0303 232.902 44.6557C224.868 46.2571 220.85 46.8826 220.85 51.6975C220.85 55.5312 223.707 57.6664 228.615 57.6664C235.219 57.6664 239.236 53.8327 239.236 46.8826H239.241Z" fill="#111921"/>
<path d="M307.567 81.822L306.406 72.3754C307.653 72.467 308.814 72.467 309.888 72.467C315.066 72.467 318.366 71.5773 320.423 65.2473L302.394 18.1868H315.963L321.141 34.2277C323.015 40.1102 324.98 46.3487 326.762 52.5008H327.118C329.262 45.1031 330.239 41.2695 332.474 34.3193L337.561 18.1868H350.768L331.848 68.3638C327.653 79.5034 321.405 81.9999 311.319 81.9999C310.158 81.9999 308.911 81.9082 307.572 81.822H307.567Z" fill="#111921"/>
<path d="M349.402 51.8755C349.402 43.2323 354.666 39.6628 367.609 37.258L375.287 35.8346C378.948 35.1228 380.017 35.0312 380.017 32.7127C380.017 28.7928 376.896 26.2963 371.626 26.2963C365.914 26.2963 363.057 29.3266 362.701 33.8719L350.919 33.1602C351.632 23.7136 359.31 17.2056 371.804 17.2056C385.012 17.2056 391.977 22.8185 391.977 35.387V62.8372C391.977 63.9048 392.069 64.7082 392.069 65.0641H381.448C381.356 64.3523 381.356 63.4627 381.356 62.6593V60.8746H381.264C378.052 63.9965 373.322 65.9537 366.54 65.9537C356.097 65.9537 349.402 60.6966 349.402 51.8701V51.8755ZM380.282 46.8826V45.1895C380.282 44.6557 380.282 43.8523 380.46 43.3185C378.23 43.8523 376.891 44.0303 373.943 44.6557C365.908 46.2571 361.891 46.8826 361.891 51.6975C361.891 55.5312 364.747 57.6664 369.655 57.6664C376.259 57.6664 380.276 53.8327 380.276 46.8826H380.282Z" fill="#111921"/>
<path d="M430.097 50.2688V42.4235C430.097 32.0873 428.046 27.364 421.35 27.364C414.298 27.364 411.356 31.9093 411.356 41.6255V46.5268C411.356 58.3782 414.034 61.0526 418.764 62.9289V65.0695H403.861C400.022 62.8427 398.861 59.0953 398.861 50.2741V27.0998C398.861 24.695 398.861 20.6834 398.77 18.187H410.729V20.0579C410.729 21.2172 410.729 22.6407 410.638 23.7999H410.816C413.58 19.7021 418.758 16.936 425.54 16.936C436.075 16.936 442.586 23.2661 442.586 36.2768V46.5268C442.586 58.3782 445.265 61.0526 449.995 62.9289V65.0695H435.092C431.253 62.8427 430.092 59.0953 430.092 50.2741L430.097 50.2688Z" fill="#111921"/>
<path d="M289.079 50.2688V42.4235C289.079 32.0873 287.027 27.364 280.331 27.364C273.28 27.364 270.337 31.9093 270.337 41.6255V46.5268C270.337 58.3782 273.015 61.0526 277.745 62.9289V65.0695H262.842C259.003 62.8427 257.843 59.0953 257.843 50.2741V27.0998C257.843 24.695 257.843 20.6834 257.751 18.187H269.711V20.0579C269.711 21.2172 269.711 22.6407 269.619 23.7999H269.797C272.562 19.7021 277.74 16.936 284.521 16.936C295.056 16.936 301.568 23.2661 301.568 36.2768V46.5268C301.568 58.3782 304.246 61.0526 308.976 62.9289V65.0695H294.073C290.234 62.8427 289.073 59.0953 289.073 50.2741L289.079 50.2688Z" fill="#111921"/>
</g>
<defs>
<clipPath id="clip0_2091_683">
<rect width="450" height="82" fill="white"/>
</clipPath>
</defs>
</svg>
