<svg width="41" height="41" viewBox="0 0 41 41" fill="none" xmlns="http://www.w3.org/2000/svg">
<path d="M28.5 16.5L32.7988 17.7896C35.5452 18.6135 36.9183 19.0255 37.7092 20.0884C38.5 21.1513 38.5 22.5849 38.5 25.4522V40.5" stroke="#6F6F6F" stroke-linejoin="round"/>
<path d="M12.5 14.5L18.5 14.5M12.5 22.5L18.5 22.5" stroke="#6F6F6F" stroke-linecap="round" stroke-linejoin="round"/>
<path d="M20.5 40.5V34.5C20.5 32.6144 20.5 31.6716 19.9142 31.0858C19.3284 30.5 18.3856 30.5 16.5 30.5H14.5C12.6144 30.5 11.6716 30.5 11.0858 31.0858C10.5 31.6716 10.5 32.6144 10.5 34.5V40.5" stroke="#6F6F6F" stroke-linejoin="round"/>
<path d="M0.5 40.5L40.5 40.5" stroke="#6F6F6F" stroke-linecap="round"/>
<path d="M2.5 40.5V9.93449C2.5 4.91298 2.5 2.40223 4.08236 1.15649C5.66473 -0.0892501 7.99483 0.587097 12.655 1.93979L22.655 4.84244C25.4673 5.65873 26.8734 6.06688 27.6867 7.17931C28.5 8.29174 28.5 9.80687 28.5 12.8371V40.5" stroke="#6F6F6F" stroke-linecap="round" stroke-linejoin="round"/>
</svg>
