<svg width="39" height="39" viewBox="0 0 39 39" fill="none" xmlns="http://www.w3.org/2000/svg">
<path d="M8.1 1.00285C6.02152 1.38941 4.49183 2.07314 3.28249 3.28248C2.07314 4.49183 1.38941 6.02152 1.00285 8.1M30.9 1.00285C32.9785 1.38941 34.5082 2.07314 35.7175 3.28249C36.9269 4.49183 37.6106 6.02152 37.9971 8.1M23.3 0.50991C22.1312 0.5 20.8678 0.5 19.5 0.5C18.1322 0.5 16.8688 0.5 15.7 0.50991M38.4901 15.7C38.5 16.8688 38.5 18.1322 38.5 19.5C38.5 20.8679 38.5 22.1313 38.4901 23.3002M0.50991 15.7C0.5 16.8688 0.5 18.1322 0.5 19.5C0.5 20.8679 0.5 22.1313 0.509911 23.3002M1.00285 30.9C1.38941 32.9785 2.07314 34.5082 3.28248 35.7175C4.49183 36.9269 6.02152 37.6106 8.1 37.9971M37.9971 30.9C37.6106 32.9785 36.9269 34.5082 35.7175 35.7175C34.5082 36.9269 32.9785 37.6106 30.9 37.9971M23.3 38.4901C22.1312 38.5 20.8678 38.5 19.5 38.5C18.1323 38.5 16.8691 38.5 15.7003 38.4901" stroke="#6F6F6F" stroke-linecap="round" stroke-linejoin="round"/>
<path d="M13.8 19.5H25.2M34.7 19.5H38.5M0.5 19.5H4.3M19.5 13.8V25.2M19.5 0.5V4.3M19.5 34.7V38.5" stroke="#6F6F6F" stroke-linecap="round" stroke-linejoin="round"/>
</svg>
