<svg width="41" height="37" viewBox="0 0 41 37" fill="none" xmlns="http://www.w3.org/2000/svg">
<path d="M40.5 29.5L0.5 29.5" stroke="#6F6F6F" stroke-linecap="round" stroke-linejoin="round"/>
<path d="M40.5 36.5V26.5C40.5 22.7288 40.5 20.8431 39.3284 19.6716C38.1569 18.5 36.2712 18.5 32.5 18.5H8.5C4.72876 18.5 2.84315 18.5 1.67157 19.6716C0.5 20.8431 0.5 22.7288 0.5 26.5V36.5" stroke="#6F6F6F" stroke-linecap="round" stroke-linejoin="round"/>
<path d="M28.5 18.5V15.7356C28.5 14.7206 28.3169 14.3811 27.3792 13.981C25.4262 13.1478 23.0557 12.5 20.5 12.5C17.9443 12.5 15.5738 13.1478 13.6208 13.981C12.6831 14.3811 12.5 14.7206 12.5 15.7356L12.5 18.5" stroke="#6F6F6F" stroke-linecap="round"/>
<path d="M36.5 18.5V9.22114C36.5 7.83785 36.5 7.14621 36.1584 6.49305C35.8169 5.83989 35.3302 5.50182 34.3567 4.82566C30.4322 2.09956 25.6544 0.5 20.5 0.5C15.3456 0.5 10.5678 2.09956 6.64326 4.82566C5.66985 5.50182 5.18314 5.83989 4.84157 6.49305C4.5 7.14621 4.5 7.83785 4.5 9.22114V18.5" stroke="#6F6F6F" stroke-linecap="round"/>
</svg>
